<svg width="153" height="60" viewBox="0 0 153 60" fill="none" xmlns="http://www.w3.org/2000/svg">
<path d="M73.1544 29.5156L71.6545 20.0613H72.7827L74.0582 29.0477L73.8916 29.0413L75.9106 20.0613H77.3592L79.3718 29.0413L79.2051 29.0477L80.4806 20.0613H81.6152L80.1026 29.5156H78.4167L76.5708 20.9844H76.6989L74.8466 29.5156H73.1544Z" fill="#1F61D9"/>
<path d="M83.3268 26.5479V25.5737H88.5891L88.3969 25.8942V25.7532C88.3969 25.36 88.3144 25.0001 88.15 24.6731C87.9856 24.3462 87.7407 24.0845 87.4162 23.888C87.0914 23.6914 86.6896 23.5931 86.2112 23.5931C85.7283 23.5931 85.303 23.6957 84.9356 23.9007C84.5679 24.1058 84.2818 24.3954 84.0765 24.7692C83.8715 25.1431 83.769 25.5886 83.769 26.1056C83.769 26.6312 83.8684 27.0842 84.067 27.4645C84.2658 27.845 84.5488 28.1375 84.9164 28.3426C85.2837 28.5478 85.7196 28.6502 86.2239 28.6502C86.5829 28.6502 86.8947 28.6129 87.1598 28.538C87.4246 28.4635 87.6437 28.363 87.8168 28.2369C87.9897 28.1109 88.1213 27.9731 88.2109 27.8235C88.3006 27.674 88.3541 27.5244 88.3712 27.3748H89.4608C89.4394 27.6482 89.354 27.9196 89.2044 28.1888C89.0548 28.4581 88.8432 28.7026 88.5698 28.9227C88.2964 29.1428 87.9609 29.3191 87.5637 29.4515C87.1662 29.5839 86.7089 29.6501 86.1919 29.6501C85.5081 29.6501 84.9057 29.5007 84.3843 29.2015C83.8629 28.9024 83.4539 28.4879 83.1569 27.9581C82.8599 27.4283 82.7114 26.8194 82.7114 26.1313C82.7114 25.4349 82.861 24.8227 83.1601 24.2949C83.459 23.7672 83.8715 23.3538 84.3973 23.0547C84.9227 22.7556 85.5231 22.6059 86.1983 22.6059C86.8862 22.6059 87.4823 22.7556 87.9865 23.0547C88.4908 23.3538 88.8796 23.7629 89.1531 24.2821C89.4265 24.8012 89.5634 25.392 89.5634 26.0543C89.5634 26.1228 89.5611 26.2125 89.557 26.3236C89.5527 26.4348 89.5462 26.5094 89.5377 26.5479H83.3268Z" fill="#1F61D9"/>
<path d="M96.6461 29.6185C96.4366 29.6185 96.2315 29.5949 96.0308 29.5481C95.8297 29.5011 95.6494 29.4167 95.4891 29.2949C95.3288 29.1731 95.2017 29 95.1078 28.7757C95.0138 28.5513 94.9667 28.2618 94.9667 27.9072V23.6704H93.3066V22.7089H94.3706C94.5158 22.7089 94.6292 22.7036 94.7105 22.6928C94.7914 22.6823 94.8502 22.6544 94.8867 22.6095C94.9229 22.5647 94.9453 22.4941 94.9539 22.398C94.9625 22.3018 94.9667 22.1683 94.9667 21.9974V20.4527H96.0628V22.7089H98.1908V23.6704H96.0628V27.4969C96.0628 27.8602 96.1065 28.1443 96.1941 28.3495C96.2818 28.5545 96.4794 28.6571 96.7871 28.6571C96.9109 28.6571 97.0285 28.6465 97.1397 28.625C97.2506 28.6037 97.3341 28.5824 97.3895 28.5609V29.5095C97.317 29.5352 97.2154 29.5597 97.0851 29.5833C96.9549 29.6067 96.8083 29.6185 96.6461 29.6185Z" fill="#1F61D9"/>
<path d="M99.8509 26.5479V25.5737H105.113L104.921 25.8942V25.7532C104.921 25.36 104.839 25.0001 104.674 24.6731C104.51 24.3462 104.265 24.0845 103.94 23.888C103.616 23.6914 103.214 23.5931 102.735 23.5931C102.252 23.5931 101.827 23.6957 101.46 23.9007C101.092 24.1058 100.806 24.3954 100.601 24.7692C100.396 25.1431 100.293 25.5886 100.293 26.1056C100.293 26.6312 100.393 27.0842 100.591 27.4645C100.79 27.845 101.073 28.1375 101.44 28.3426C101.808 28.5478 102.244 28.6502 102.748 28.6502C103.107 28.6502 103.419 28.6129 103.684 28.538C103.949 28.4635 104.168 28.363 104.341 28.2369C104.514 28.1109 104.645 27.9731 104.735 27.8235C104.825 27.674 104.878 27.5244 104.895 27.3748H105.985C105.964 27.6482 105.878 27.9196 105.729 28.1888C105.579 28.4581 105.367 28.7026 105.094 28.9227C104.821 29.1428 104.485 29.3191 104.088 29.4515C103.69 29.5839 103.233 29.6501 102.716 29.6501C102.032 29.6501 101.43 29.5007 100.909 29.2015C100.387 28.9024 99.978 28.4879 99.6811 27.9581C99.3841 27.4283 99.2356 26.8194 99.2356 26.1313C99.2356 25.4349 99.3852 24.8227 99.6843 24.2949C99.9832 23.7672 100.396 23.3538 100.921 23.0547C101.447 22.7556 102.047 22.6059 102.722 22.6059C103.41 22.6059 104.006 22.7556 104.511 23.0547C105.015 23.3538 105.404 23.7629 105.677 24.2821C105.951 24.8012 106.088 25.392 106.088 26.0543C106.088 26.1228 106.085 26.2125 106.081 26.3236C106.077 26.4348 106.07 26.5094 106.062 26.5479H99.8509Z" fill="#1F61D9"/>
<path d="M110.478 29.6438C110.068 29.6438 109.689 29.6 109.341 29.5123C108.992 29.4248 108.689 29.2966 108.43 29.1279C108.172 28.959 107.971 28.7507 107.828 28.5028C107.685 28.2551 107.613 27.9709 107.613 27.6503V27.4516H108.709V27.5926C108.709 27.9388 108.869 28.2028 109.19 28.3843C109.511 28.5661 109.948 28.6567 110.504 28.6567C110.846 28.6567 111.151 28.6225 111.421 28.5541C111.69 28.4858 111.902 28.3811 112.058 28.2401C112.214 28.0991 112.292 27.9218 112.292 27.7081C112.292 27.3534 112.127 27.1003 111.796 26.9486C111.464 26.7969 110.97 26.6655 110.312 26.5543C109.966 26.4945 109.636 26.4165 109.325 26.3204C109.013 26.2243 108.736 26.0993 108.495 25.9454C108.253 25.7916 108.063 25.6004 107.924 25.3718C107.785 25.1431 107.716 24.8686 107.716 24.5481C107.716 24.1337 107.838 23.7822 108.084 23.4937C108.33 23.2053 108.662 22.9852 109.081 22.8336C109.5 22.6819 109.966 22.6059 110.478 22.6059C110.974 22.6059 111.431 22.6851 111.85 22.8431C112.269 23.0012 112.605 23.2309 112.86 23.5322C113.114 23.8335 113.241 24.2042 113.241 24.6443V24.7724H112.151V24.6763C112.151 24.4285 112.072 24.2245 111.914 24.0642C111.756 23.9039 111.551 23.7844 111.299 23.7052C111.047 23.6262 110.777 23.5867 110.491 23.5867C110.222 23.5867 109.957 23.6155 109.696 23.6732C109.436 23.7309 109.22 23.826 109.049 23.9584C108.878 24.091 108.793 24.2725 108.793 24.5033C108.793 24.734 108.873 24.9188 109.033 25.0578C109.193 25.1965 109.42 25.3098 109.712 25.3974C110.005 25.485 110.35 25.5652 110.748 25.6377C111.102 25.7019 111.438 25.782 111.754 25.8781C112.07 25.9744 112.349 26.097 112.59 26.2466C112.832 26.3962 113.022 26.5854 113.161 26.8139C113.3 27.0425 113.369 27.3214 113.369 27.6503C113.369 27.9836 113.293 28.2743 113.142 28.5221C112.99 28.77 112.78 28.9771 112.513 29.1438C112.246 29.3105 111.939 29.4355 111.591 29.5188C111.242 29.6022 110.872 29.6438 110.478 29.6438Z" fill="#1F61D9"/>
<path d="M117.888 29.6185C117.678 29.6185 117.473 29.5949 117.272 29.5481C117.071 29.5011 116.891 29.4167 116.731 29.2949C116.57 29.1731 116.443 29 116.349 28.7757C116.255 28.5513 116.208 28.2618 116.208 27.9072V23.6704H114.548V22.7089H115.612C115.757 22.7089 115.871 22.7036 115.952 22.6928C116.033 22.6823 116.092 22.6544 116.128 22.6095C116.164 22.5647 116.187 22.4941 116.195 22.398C116.204 22.3018 116.208 22.1683 116.208 21.9974V20.4527H117.304V22.7089H119.432V23.6704H117.304V27.4969C117.304 27.8602 117.348 28.1443 117.436 28.3495C117.523 28.5545 117.721 28.6571 118.029 28.6571C118.152 28.6571 118.27 28.6465 118.381 28.625C118.492 28.6037 118.576 28.5824 118.631 28.5609V29.5095C118.558 29.5352 118.457 29.5597 118.327 29.5833C118.196 29.6067 118.05 29.6185 117.888 29.6185Z" fill="#1F61D9"/>
<path d="M121.265 29.6822C121.056 29.6822 120.879 29.6105 120.736 29.4674C120.593 29.3244 120.522 29.1481 120.522 28.9386C120.522 28.7336 120.593 28.5585 120.736 28.4131C120.879 28.2679 121.056 28.1952 121.265 28.1952C121.47 28.1952 121.645 28.2679 121.791 28.4131C121.936 28.5585 122.009 28.7336 122.009 28.9386C122.009 29.1481 121.936 29.3244 121.791 29.4674C121.645 29.6105 121.47 29.6822 121.265 29.6822Z" fill="#1F61D9"/>
<path d="M78.6094 35.4448L75.8979 41.6303V44.8992H74.2058V41.6303L71.5138 35.4448H73.3021L75.398 40.7394H74.7186L76.8082 35.4448H78.6094Z" fill="#54D499"/>
<path d="M82.4226 43.6556C82.8114 43.6556 83.1512 43.5659 83.4418 43.3863C83.7323 43.2071 83.9588 42.956 84.1213 42.6332C84.2835 42.3107 84.3648 41.9315 84.3648 41.4955C84.3648 41.0597 84.2835 40.6826 84.1213 40.3642C83.9588 40.0459 83.7323 39.7993 83.4418 39.6239C83.1512 39.4487 82.8114 39.3611 82.4226 39.3611C82.038 39.3611 81.6995 39.4487 81.4068 39.6239C81.1141 39.7993 80.8866 40.0459 80.7241 40.3642C80.5617 40.6826 80.4804 41.0597 80.4804 41.4955C80.4804 41.9315 80.5617 42.3107 80.7241 42.6332C80.8866 42.956 81.1141 43.2071 81.4068 43.3863C81.6995 43.5659 82.038 43.6556 82.4226 43.6556ZM82.4226 45.0337C81.7047 45.0337 81.0723 44.8832 80.5255 44.5818C79.9783 44.2806 79.55 43.863 79.2403 43.3286C78.9304 42.7947 78.7755 42.1836 78.7755 41.4955C78.7755 40.8033 78.9304 40.1934 79.2403 39.6656C79.55 39.1379 79.9783 38.7245 80.5255 38.4254C81.0723 38.1262 81.7047 37.9767 82.4226 37.9767C83.1405 37.9767 83.7729 38.1262 84.3199 38.4254C84.867 38.7245 85.2952 39.1379 85.6051 39.6656C85.9149 40.1934 86.0699 40.8033 86.0699 41.4955C86.0699 42.1836 85.9149 42.7947 85.6051 43.3286C85.2952 43.863 84.867 44.2806 84.3199 44.5818C83.7729 44.8832 83.1405 45.0337 82.4226 45.0337Z" fill="#54D499"/>
<path d="M92.1909 38.0924H93.8766V44.8994H92.1909V38.0924ZM89.9732 45.0277C89.4901 45.0277 89.0896 44.9464 88.7713 44.7841C88.4529 44.6217 88.2029 44.4081 88.0213 44.1431C87.8396 43.8781 87.7115 43.5855 87.6368 43.2649C87.5619 42.9443 87.5247 42.6239 87.5247 42.3035V38.0924H89.2167V41.8676C89.2167 42.171 89.253 42.452 89.3257 42.7105C89.3983 42.969 89.5318 43.1774 89.7264 43.3353C89.9206 43.4936 90.1951 43.5726 90.5499 43.5726C90.8875 43.5726 91.1781 43.4732 91.4216 43.2746C91.6652 43.0758 91.8543 42.8249 91.9889 42.5213C92.1236 42.218 92.1909 41.9103 92.1909 41.5985L92.7677 41.983C92.7677 42.3975 92.7035 42.7874 92.5754 43.1527C92.4472 43.5181 92.2612 43.8418 92.0178 44.1238C91.7742 44.4058 91.4804 44.627 91.1364 44.7873C90.7924 44.9475 90.4046 45.0277 89.9732 45.0277Z" fill="#54D499"/>
<path d="M98.178 38.092H99.8445V44.899H98.178V38.092ZM99.0176 36.8356C98.7442 36.8356 98.5058 36.7618 98.303 36.6144C98.1001 36.467 97.9985 36.2609 97.9985 35.9959C97.9985 35.7353 98.1001 35.5323 98.303 35.3871C98.5058 35.2417 98.7442 35.169 99.0176 35.169C99.2867 35.169 99.5217 35.2417 99.7226 35.3871C99.9235 35.5323 100.024 35.7353 100.024 35.9959C100.024 36.2609 99.9235 36.467 99.7226 36.6144C99.5217 36.7618 99.2867 36.8356 99.0176 36.8356Z" fill="#54D499"/>
<path d="M110.112 44.8991V40.9829C110.112 40.8033 110.101 40.6228 110.08 40.4412C110.058 40.2597 110.012 40.095 109.939 39.9476C109.866 39.8001 109.753 39.6807 109.599 39.5887C109.446 39.4968 109.236 39.4508 108.971 39.4508C108.71 39.4508 108.491 39.5021 108.314 39.6046C108.137 39.7074 107.995 39.8441 107.888 40.015C107.781 40.186 107.703 40.3781 107.654 40.5919C107.605 40.8056 107.58 41.0192 107.58 41.2327L107.016 40.861C107.016 40.3185 107.119 39.8289 107.324 39.3932C107.529 38.9573 107.824 38.6123 108.208 38.358C108.593 38.1039 109.05 37.9767 109.58 37.9767C110.114 37.9767 110.544 38.0856 110.868 38.3035C111.193 38.5215 111.429 38.8196 111.577 39.1977C111.724 39.5758 111.798 40.0064 111.798 40.4893V44.8991H110.112ZM105.907 44.8991V40.9955C105.907 40.8289 105.897 40.6549 105.875 40.4732C105.854 40.2916 105.807 40.1238 105.734 39.9701C105.662 39.8163 105.549 39.6913 105.398 39.5951C105.246 39.499 105.038 39.4508 104.773 39.4508C104.516 39.4508 104.3 39.5032 104.122 39.6079C103.945 39.7126 103.8 39.8515 103.686 40.0246C103.573 40.1976 103.491 40.3942 103.44 40.6142C103.388 40.8344 103.363 41.0597 103.363 41.2904L102.799 40.9123C102.799 40.3526 102.903 39.8526 103.113 39.4124C103.322 38.9724 103.62 38.6231 104.007 38.3644C104.394 38.106 104.852 37.9767 105.382 37.9767C105.929 37.9767 106.362 38.091 106.683 38.3196C107.003 38.5482 107.233 38.857 107.372 39.2458C107.511 39.6346 107.58 40.0706 107.58 40.5534V44.8991H105.907ZM101.677 38.0921H103.363V44.8991H101.677V38.0921Z" fill="#54D499"/>
<path d="M117.413 45.0401C116.883 45.0401 116.392 44.9023 115.942 44.6267C115.491 44.351 115.127 43.974 114.852 43.4955C114.576 43.017 114.438 42.4785 114.438 41.8802V41.7905L115.272 41.7712V41.8353C115.272 42.1686 115.355 42.4646 115.522 42.723C115.688 42.9816 115.905 43.1845 116.172 43.332C116.439 43.4793 116.725 43.5531 117.028 43.5531C117.519 43.5531 117.938 43.3844 118.284 43.0466C118.63 42.7093 118.804 42.1858 118.804 41.4765C118.804 40.7629 118.631 40.2404 118.287 39.9092C117.943 39.5781 117.524 39.4124 117.028 39.4124C116.729 39.4124 116.446 39.4841 116.179 39.6272C115.912 39.7704 115.694 39.968 115.525 40.22C115.356 40.4723 115.272 40.7671 115.272 41.1046L114.438 41.0662C114.438 40.4636 114.576 39.9296 114.852 39.4637C115.127 38.9981 115.491 38.6336 115.942 38.3709C116.392 38.1082 116.883 37.9767 117.413 37.9767C117.964 37.9767 118.478 38.1112 118.954 38.3806C119.43 38.6497 119.815 39.045 120.108 39.5663C120.4 40.0876 120.547 40.7243 120.547 41.4765C120.547 42.2498 120.404 42.9015 120.117 43.4312C119.831 43.9611 119.451 44.3618 118.976 44.6332C118.502 44.9045 117.981 45.0401 117.413 45.0401ZM113.58 38.0921H115.265V47.7001H113.58V38.0921Z" fill="#54D499"/>
<path d="M122.066 44.8991V38.0921H123.752L123.752 40.3547L123.361 40.1367C123.404 39.8418 123.483 39.5631 123.598 39.3001C123.714 39.0374 123.867 38.8067 124.06 38.608C124.252 38.4093 124.485 38.2545 124.758 38.1434C125.032 38.0322 125.344 37.9767 125.694 37.9767C125.972 37.9767 126.191 37.997 126.351 38.0375C126.511 38.0782 126.611 38.1112 126.649 38.1369L126.342 39.6817C126.299 39.6519 126.212 39.6143 126.082 39.5695C125.952 39.5246 125.778 39.5021 125.56 39.5021C125.214 39.5021 124.924 39.5609 124.691 39.6785C124.458 39.7961 124.273 39.9541 124.137 40.1527C124 40.3514 123.902 40.5695 123.842 40.8065C123.782 41.0438 123.752 41.2797 123.752 41.5147V44.8991H122.066Z" fill="#54D499"/>
<path d="M128.264 42.0405V40.8418H133.026L132.834 41.1623V40.9956C132.834 40.7009 132.768 40.4241 132.635 40.1656C132.503 39.9071 132.302 39.6976 132.033 39.5374C131.764 39.3772 131.422 39.2971 131.007 39.2971C130.597 39.2971 130.241 39.3836 129.94 39.5566C129.639 39.7298 129.406 39.9787 129.241 40.3034C129.077 40.6282 128.995 41.017 128.995 41.47C128.995 41.9358 129.074 42.3364 129.232 42.6719C129.39 43.0073 129.622 43.2636 129.927 43.441C130.233 43.6183 130.606 43.7069 131.046 43.7069C131.345 43.7069 131.603 43.6793 131.821 43.6236C132.039 43.5681 132.218 43.4923 132.357 43.3962C132.495 43.2998 132.6 43.1964 132.671 43.0852C132.741 42.9741 132.783 42.8631 132.796 42.7519H134.475C134.449 43.0382 134.354 43.3172 134.19 43.5884C134.025 43.8597 133.796 44.1054 133.501 44.3255C133.206 44.5456 132.848 44.7207 132.427 44.851C132.006 44.9813 131.527 45.0465 130.988 45.0465C130.257 45.0465 129.619 44.897 129.072 44.5978C128.525 44.2988 128.098 43.8821 127.793 43.3481C127.487 42.8139 127.335 42.2028 127.335 41.5149C127.335 40.8099 127.489 40.1923 127.799 39.6624C128.109 39.1327 128.54 38.7192 129.091 38.4221C129.642 38.1253 130.274 37.9767 130.988 37.9767C131.723 37.9767 132.359 38.1262 132.895 38.4254C133.431 38.7245 133.845 39.14 134.135 39.6721C134.426 40.204 134.571 40.8226 134.571 41.5277C134.571 41.6173 134.569 41.7134 134.565 41.8161C134.56 41.9186 134.554 41.9935 134.545 42.0405H128.264Z" fill="#54D499"/>
<path d="M138.763 45.0401C138.357 45.0401 137.971 44.9953 137.606 44.9056C137.241 44.8159 136.916 44.6813 136.632 44.5017C136.347 44.3222 136.123 44.0991 135.959 43.8319C135.794 43.565 135.712 43.2561 135.712 42.9058V42.7584H137.391V42.8737C137.391 43.1516 137.518 43.3597 137.773 43.4986C138.027 43.6376 138.374 43.7069 138.814 43.7069C139.053 43.7069 139.279 43.6814 139.491 43.6301C139.702 43.5788 139.873 43.4997 140.003 43.3928C140.133 43.2861 140.199 43.1494 140.199 42.9827C140.199 42.7134 140.061 42.5212 139.785 42.4058C139.51 42.2905 139.077 42.1858 138.487 42.0918C138.162 42.0363 137.842 41.9615 137.526 41.8675C137.21 41.7735 136.922 41.6473 136.664 41.4891C136.405 41.3312 136.198 41.1346 136.042 40.8995C135.886 40.6647 135.808 40.3783 135.808 40.0406C135.808 39.592 135.942 39.215 136.209 38.9093C136.476 38.6039 136.835 38.372 137.285 38.214C137.736 38.0559 138.233 37.9767 138.776 37.9767C139.297 37.9767 139.782 38.0621 140.231 38.2331C140.679 38.404 141.042 38.6497 141.317 38.9703C141.593 39.2907 141.731 39.6774 141.731 40.1304V40.2329H140.064V40.1496C140.064 39.953 140.002 39.7929 139.878 39.6688C139.754 39.545 139.594 39.453 139.397 39.3931C139.201 39.3334 138.994 39.3035 138.776 39.3035C138.583 39.3035 138.385 39.3238 138.18 39.3643C137.974 39.4051 137.804 39.4755 137.667 39.5759C137.53 39.6763 137.462 39.8163 137.462 39.9957C137.462 40.1667 137.532 40.3056 137.673 40.4124C137.814 40.5192 138.011 40.6079 138.263 40.6784C138.515 40.7488 138.806 40.8121 139.135 40.8675C139.447 40.9188 139.762 40.9891 140.08 41.079C140.398 41.1687 140.69 41.2885 140.955 41.4379C141.22 41.5875 141.435 41.783 141.599 42.0244C141.764 42.2659 141.846 42.564 141.846 42.9187C141.846 43.2947 141.76 43.6151 141.589 43.8799C141.419 44.145 141.187 44.3639 140.894 44.537C140.601 44.7101 140.271 44.8373 139.904 44.9184C139.536 44.9995 139.156 45.0401 138.763 45.0401Z" fill="#54D499"/>
<path d="M146.089 45.0401C145.683 45.0401 145.297 44.9953 144.932 44.9056C144.567 44.8159 144.242 44.6813 143.958 44.5017C143.673 44.3222 143.449 44.0991 143.285 43.8319C143.12 43.565 143.038 43.2561 143.038 42.9058V42.7584H144.717V42.8737C144.717 43.1516 144.844 43.3597 145.099 43.4986C145.353 43.6376 145.7 43.7069 146.14 43.7069C146.379 43.7069 146.605 43.6814 146.817 43.6301C147.028 43.5788 147.199 43.4997 147.329 43.3928C147.459 43.2861 147.525 43.1494 147.525 42.9827C147.525 42.7134 147.387 42.5212 147.111 42.4058C146.836 42.2905 146.403 42.1858 145.813 42.0918C145.488 42.0363 145.168 41.9615 144.852 41.8675C144.536 41.7735 144.248 41.6473 143.99 41.4891C143.731 41.3312 143.524 41.1346 143.368 40.8995C143.212 40.6647 143.134 40.3783 143.134 40.0406C143.134 39.592 143.268 39.215 143.535 38.9093C143.802 38.6039 144.161 38.372 144.611 38.214C145.062 38.0559 145.559 37.9767 146.102 37.9767C146.623 37.9767 147.108 38.0621 147.557 38.2331C148.005 38.404 148.368 38.6497 148.643 38.9703C148.919 39.2907 149.057 39.6774 149.057 40.1304V40.2329H147.39V40.1496C147.39 39.953 147.328 39.7929 147.204 39.6688C147.08 39.545 146.92 39.453 146.723 39.3931C146.527 39.3334 146.32 39.3035 146.102 39.3035C145.909 39.3035 145.711 39.3238 145.506 39.3643C145.3 39.4051 145.13 39.4755 144.993 39.5759C144.856 39.6763 144.788 39.8163 144.788 39.9957C144.788 40.1667 144.858 40.3056 144.999 40.4124C145.14 40.5192 145.337 40.6079 145.589 40.6784C145.841 40.7488 146.132 40.8121 146.461 40.8675C146.773 40.9188 147.088 40.9891 147.406 41.079C147.724 41.1687 148.016 41.2885 148.281 41.4379C148.546 41.5875 148.761 41.783 148.925 42.0244C149.09 42.2659 149.172 42.564 149.172 42.9187C149.172 43.2947 149.086 43.6151 148.915 43.8799C148.745 44.145 148.513 44.3639 148.22 44.537C147.927 44.7101 147.597 44.8373 147.23 44.9184C146.862 44.9995 146.482 45.0401 146.089 45.0401Z" fill="#54D499"/>
<path d="M151.563 45.0782C151.298 45.0782 151.074 44.9862 150.89 44.8026C150.706 44.6189 150.615 44.3946 150.615 44.1296C150.615 43.8689 150.706 43.6456 150.89 43.4596C151.074 43.2739 151.298 43.181 151.563 43.181C151.824 43.181 152.047 43.2739 152.233 43.4596C152.419 43.6456 152.512 43.8689 152.512 44.1296C152.512 44.3946 152.419 44.6189 152.233 44.8026C152.047 44.9862 151.824 45.0782 151.563 45.0782Z" fill="#54D499"/>
<path d="M42.0892 14.0488C44.1601 14.0488 45.8424 15.7311 45.8424 17.8019C45.8424 19.8728 44.1601 21.555 42.0892 21.555C40.0184 21.555 38.3361 19.8728 38.3361 17.8019C38.3361 15.7311 40.0184 14.0488 42.0892 14.0488Z" fill="#54D499"/>
<path d="M34.7727 44.9958H13.814V40.1086L23.7047 30.2949C25.0635 28.8118 26.0674 27.5161 26.7182 26.4097C27.3691 25.3033 27.6945 24.254 27.6945 23.2601C27.6945 21.9012 27.3533 20.8342 26.667 20.0572C25.9806 19.2801 25.0005 18.8916 23.7264 18.8916C22.3537 18.8916 21.273 19.3649 20.4821 20.3097C19.6912 21.2543 19.2949 22.4968 19.2949 24.0371H13.8022C13.8022 22.1753 13.6504 20.4733 14.5379 18.9331C15.4273 17.3948 16.6836 16.1857 18.3087 15.312C19.9318 14.4364 21.7739 13.9986 23.8308 13.9986C26.9805 13.9986 29.428 14.7539 31.1715 16.2666C32.9129 17.7792 33.7846 19.9133 33.7846 22.6724C33.7846 24.185 33.3941 25.7233 32.6093 27.2912C31.8262 28.8611 30.4812 30.6874 28.578 32.774L21.6259 40.1028H34.7727V44.9958Z" fill="#1F61D9"/>
<path d="M45.3191 24.0444H39.1993V44.9873H45.3191V24.0444Z" fill="#1F61D9"/>
<path d="M30.0931 0C41.0151 0.0513105 51.6414 6.43727 56.7238 16.3516C61.6878 26.0392 60.8595 38.4601 54.4163 47.4593C47.8252 56.6656 35.7553 61.6473 24.4112 59.5075C12.3235 57.2296 2.10343 46.9781 0.287004 34.3007C-1.29274 23.2819 3.73642 11.5374 13.2168 5.12968C18.0882 1.83819 23.9378 0.0472842 29.8032 0H30.0931ZM29.9156 4.87333C23.6005 4.90494 17.3506 7.39377 12.7652 11.715C8.97076 15.2886 6.32011 20.0613 5.32019 25.1793C3.43085 34.8648 7.74789 45.5009 16.2619 51.0704C24.35 56.3619 35.5068 56.4486 43.7309 51.0704C49.6929 47.1694 53.8681 40.6749 54.8818 33.6085C56.0138 25.6999 53.1147 17.3259 47.3381 11.8194C42.7843 7.47862 36.5955 4.94624 30.241 4.87526C30.1326 4.87333 30.024 4.87333 29.9156 4.87333Z" fill="#1F61D9"/>
</svg>
